<svg xmlns="http://www.w3.org/2000/svg" width="512" height="512" viewBox="0 0 512 512">
  <defs>
    <linearGradient id="bg" x1="64" y1="32" x2="448" y2="480" gradientUnits="userSpaceOnUse">
      <stop offset="0" stop-color="#0B1820"/>
      <stop offset="0.54" stop-color="#050A0E"/>
      <stop offset="1" stop-color="#020405"/>
    </linearGradient>
    <linearGradient id="cyan" x1="130" y1="96" x2="380" y2="410" gradientUnits="userSpaceOnUse">
      <stop stop-color="#9AF4FF"/>
      <stop offset="0.42" stop-color="#3BDDF4"/>
      <stop offset="1" stop-color="#157B96"/>
    </linearGradient>
    <linearGradient id="hazard" x1="216" y1="96" x2="332" y2="414" gradientUnits="userSpaceOnUse">
      <stop stop-color="#FFB030"/>
      <stop offset="0.38" stop-color="#FF6A18"/>
      <stop offset="1" stop-color="#A4210B"/>
    </linearGradient>
  </defs>
  <rect width="512" height="512" rx="112" fill="url(#bg)"/>
  <circle cx="256" cy="256" r="184" fill="none" stroke="#132B35" stroke-width="18"/>
  <circle cx="256" cy="256" r="168" fill="none" stroke="url(#cyan)" stroke-width="5" stroke-dasharray="44 18"/>
  <path d="M256 82 390 151v129c0 77-49 126-134 158-85-32-134-81-134-158V151z" fill="#071116" stroke="url(#cyan)" stroke-width="15" stroke-linejoin="round"/>
  <path d="M256 120 352 170v103c0 54-33 90-96 119-63-29-96-65-96-119V170z" fill="#05090C" stroke="#173642" stroke-width="6"/>
  <path d="M235 157h45l-11 79h64L219 370l21-96h-63z" fill="url(#hazard)"/>
  <path d="M237 159h18l-7 96h-39z" fill="#FFE2A6" opacity=".58"/>
  <path d="M109 346h72M331 346h72" stroke="#FF6A18" stroke-width="9" stroke-linecap="round"/>
  <circle cx="104" cy="346" r="7" fill="#FF9B27"/>
  <circle cx="408" cy="346" r="7" fill="#FF9B27"/>
</svg>
